<svg width="14" height="14" viewBox="0 0 14 14" fill="none" xmlns="http://www.w3.org/2000/svg">
<path fill-rule="evenodd" clip-rule="evenodd" d="M13.72 7.1591C13.72 6.66273 13.6755 6.18546 13.5927 5.72728H7V8.43501H10.7673C10.605 9.31001 10.1118 10.0514 9.37045 10.5477V12.3041H11.6327C12.9564 11.0855 13.72 9.29092 13.72 7.1591Z" fill="#4285F4"/>
<path fill-rule="evenodd" clip-rule="evenodd" d="M6.9996 14C8.8896 14 10.4741 13.3731 11.6323 12.304L9.37005 10.5477C8.74323 10.9677 7.94141 11.2159 6.9996 11.2159C5.17641 11.2159 3.63323 9.9845 3.08278 8.32996H0.744141V10.1436C1.89596 12.4313 4.26323 14 6.9996 14Z" fill="#34A853"/>
<path fill-rule="evenodd" clip-rule="evenodd" d="M3.08318 8.32996C2.94318 7.90996 2.86364 7.46132 2.86364 6.99996C2.86364 6.5386 2.94318 6.08996 3.08318 5.66996V3.85632H0.744545C0.270455 4.80132 0 5.87041 0 6.99996C0 8.12951 0.270455 9.1986 0.744545 10.1436L3.08318 8.32996Z" fill="#FBBC05"/>
<path fill-rule="evenodd" clip-rule="evenodd" d="M6.9996 2.78409C8.02732 2.78409 8.95005 3.13727 9.6755 3.83091L11.6832 1.82318C10.471 0.693636 8.88641 0 6.9996 0C4.26323 0 1.89596 1.56864 0.744141 3.85636L3.08278 5.67C3.63323 4.01545 5.17641 2.78409 6.9996 2.78409Z" fill="#EA4335"/>
</svg>
