<svg width="478" height="260" viewBox="0 0 478 260" fill="none" xmlns="http://www.w3.org/2000/svg">
<g clip-path="url(#clip0_31_1286)">
<path d="M383.356 184.396C370.594 184.492 361.034 178.278 353.099 169.626C351.569 167.905 350.087 165.611 348.749 163.03C341.914 150.124 340.097 135.162 343.204 120.87C348.319 97.4482 359.504 55.4798 378.959 24.7922C381.014 21.5418 385.746 21.5418 387.802 24.7922C407.208 55.4798 418.394 97.4482 423.556 120.87C426.663 135.115 424.799 150.124 418.011 163.03C416.673 165.563 415.191 167.858 413.661 169.626C405.679 178.278 396.119 184.492 383.356 184.396Z" fill="#C0ADFF"/>
<path opacity="0.4" d="M422.982 120.87C417.868 97.4482 406.682 55.4798 387.228 24.7922C385.698 22.4022 382.687 21.7808 380.392 22.9758C382.209 24.4576 383.738 26.3696 384.886 28.7118C399.751 59.017 408.786 93.7198 413.374 114.704C416.768 130.143 414.761 146.3 407.447 160.305C405.918 163.221 404.292 165.85 402.524 167.858C395.067 175.984 386.272 182.198 375.087 183.679C377.524 184.205 380.058 184.444 382.782 184.444C395.545 184.54 405.105 178.326 413.04 169.674C414.569 167.953 416.051 165.659 417.39 163.078C424.273 150.124 426.137 135.162 422.982 120.87Z" fill="#382F55"/>
<path d="M383.356 184.396C370.594 184.492 361.034 178.278 353.099 169.626C351.569 167.905 350.087 165.611 348.749 163.03C341.914 150.124 340.097 135.162 343.204 120.87C348.319 97.4482 359.504 55.4798 378.959 24.7922C381.014 21.5418 385.746 21.5418 387.802 24.7922C407.208 55.4798 418.394 97.4482 423.556 120.87C426.663 135.115 424.799 150.124 418.011 163.03C416.673 165.563 415.191 167.858 413.661 169.626C405.679 178.278 396.119 184.492 383.356 184.396Z" stroke="#212529" stroke-width="4.78" stroke-miterlimit="10" stroke-linecap="round" stroke-linejoin="round"/>
<path d="M383.356 157.246L403.432 142.763" stroke="#212529" stroke-width="4.78" stroke-miterlimit="10" stroke-linecap="round" stroke-linejoin="round"/>
<path d="M383.356 137.17L365.431 123.308" stroke="#212529" stroke-width="4.78" stroke-miterlimit="10" stroke-linecap="round" stroke-linejoin="round"/>
<path d="M338.854 197.78H308.31C299.323 197.78 292.01 190.467 292.01 181.481V124.121C292.01 115.134 299.323 107.821 308.31 107.821H338.806C347.793 107.821 355.106 115.134 355.106 124.121V181.481C355.154 190.467 347.84 197.78 338.854 197.78Z" fill="#ADBFFF"/>
<path opacity="0.74" d="M338.376 107.821H331.206C340.192 107.821 347.506 115.134 347.506 124.121V181.481C347.506 190.467 340.192 197.78 331.206 197.78H338.376C347.362 197.78 354.676 190.467 354.676 181.481V124.121C354.676 115.086 347.362 107.821 338.376 107.821Z" fill="#B199FF"/>
<path d="M338.854 197.78H308.31C299.323 197.78 292.01 190.467 292.01 181.481V124.121C292.01 115.134 299.323 107.821 308.31 107.821H338.806C347.793 107.821 355.106 115.134 355.106 124.121V181.481C355.154 190.467 347.84 197.78 338.854 197.78Z" stroke="#212529" stroke-width="4.78" stroke-miterlimit="10" stroke-linecap="round" stroke-linejoin="round"/>
<path d="M323.606 184.396L336.99 172.064" stroke="#212529" stroke-width="4.78" stroke-miterlimit="10" stroke-linecap="round" stroke-linejoin="round"/>
<path d="M323.606 163.938L308.788 157.246" stroke="#212529" stroke-width="4.78" stroke-miterlimit="10" stroke-linecap="round" stroke-linejoin="round"/>
<path d="M383.356 238.028V103.232" stroke="#212529" stroke-width="4.78" stroke-miterlimit="10" stroke-linecap="round" stroke-linejoin="round"/>
<path d="M323.606 142.906V238.028" stroke="#212529" stroke-width="4.78" stroke-miterlimit="10" stroke-linecap="round" stroke-linejoin="round"/>
<path d="M96.8907 184.874C112.73 184.874 125.571 150.633 125.571 108.394C125.571 66.1557 112.73 31.9144 96.8907 31.9144C81.0512 31.9144 68.2107 66.1557 68.2107 108.394C68.2107 150.633 81.0512 184.874 96.8907 184.874Z" fill="#C3FFC2"/>
<path opacity="0.53" d="M96.8906 31.9144C96.6516 31.9144 96.4126 31.9144 96.1258 31.9622C109.366 38.7498 119.357 69.772 119.357 107.056C119.357 148.642 106.929 182.437 91.4414 183.488C93.21 184.396 95.0264 184.874 96.8906 184.874C112.712 184.874 125.571 150.65 125.571 108.394C125.571 66.1392 112.712 31.9144 96.8906 31.9144Z" fill="#91C890"/>
<path d="M96.8907 184.874C112.73 184.874 125.571 150.633 125.571 108.394C125.571 66.1557 112.73 31.9144 96.8907 31.9144C81.0512 31.9144 68.2107 66.1557 68.2107 108.394C68.2107 150.633 81.0512 184.874 96.8907 184.874Z" stroke="#212529" stroke-width="4.78" stroke-miterlimit="10" stroke-linecap="round" stroke-linejoin="round"/>
<path d="M96.7471 83.156V232.77" stroke="#212529" stroke-width="4.78" stroke-miterlimit="10" stroke-linecap="round" stroke-linejoin="round"/>
<path d="M96.8905 130L108.219 115.182" stroke="#212529" stroke-width="4.78" stroke-miterlimit="10" stroke-linecap="round" stroke-linejoin="round"/>
<path d="M96.8906 159.158L84.6538 146.395" stroke="#212529" stroke-width="4.78" stroke-miterlimit="10" stroke-linecap="round" stroke-linejoin="round"/>
<path d="M96.747 108.155L86.8524 97.018" stroke="#212529" stroke-width="4.78" stroke-miterlimit="10" stroke-linecap="round" stroke-linejoin="round"/>
<path opacity="0.6" d="M111.23 99.8382C113.421 99.8382 115.198 98.062 115.198 95.8708C115.198 93.6797 113.421 91.9034 111.23 91.9034C109.039 91.9034 107.263 93.6797 107.263 95.8708C107.263 98.062 109.039 99.8382 111.23 99.8382Z" fill="#89D888"/>
<path d="M84.6538 79.9534C86.0529 79.9534 87.1872 78.8191 87.1872 77.42C87.1872 76.0208 86.0529 74.8866 84.6538 74.8866C83.2546 74.8866 82.1204 76.0208 82.1204 77.42C82.1204 78.8191 83.2546 79.9534 84.6538 79.9534Z" fill="#A7E2A6"/>
<path d="M101.145 74.1218C102.333 74.1218 103.296 73.1588 103.296 71.9708C103.296 70.7828 102.333 69.8198 101.145 69.8198C99.9568 69.8198 98.9938 70.7828 98.9938 71.9708C98.9938 73.1588 99.9568 74.1218 101.145 74.1218Z" fill="#A7E2A6"/>
<path opacity="0.38" d="M309.649 132.342C312.341 132.342 314.524 130.159 314.524 127.467C314.524 124.774 312.341 122.591 309.649 122.591C306.956 122.591 304.773 124.774 304.773 127.467C304.773 130.159 306.956 132.342 309.649 132.342Z" fill="#6E7AA6"/>
<path opacity="0.38" d="M324.944 133.776C326.871 133.776 328.434 132.214 328.434 130.287C328.434 128.36 326.871 126.797 324.944 126.797C323.017 126.797 321.455 128.36 321.455 130.287C321.455 132.214 323.017 133.776 324.944 133.776Z" fill="#6E7AA6"/>
<path opacity="0.74" d="M309.648 177.226C311.575 177.226 313.138 175.664 313.138 173.737C313.138 171.81 311.575 170.248 309.648 170.248C307.721 170.248 306.159 171.81 306.159 173.737C306.159 175.664 307.721 177.226 309.648 177.226Z" fill="#95A4DD"/>
<path opacity="0.74" d="M335.317 148.738C336.928 148.738 338.233 147.432 338.233 145.822C338.233 144.211 336.928 142.906 335.317 142.906C333.707 142.906 332.401 144.211 332.401 145.822C332.401 147.432 333.707 148.738 335.317 148.738Z" fill="#95A4DD"/>
<path opacity="0.6" d="M81.7379 126.558C83.929 126.558 85.7053 124.782 85.7053 122.591C85.7053 120.4 83.929 118.624 81.7379 118.624C79.5468 118.624 77.7705 120.4 77.7705 122.591C77.7705 124.782 79.5468 126.558 81.7379 126.558Z" fill="#89D888"/>
<path opacity="0.6" d="M90.6764 67.1908C92.8675 67.1908 94.6438 65.4145 94.6438 63.2234C94.6438 61.0323 92.8675 59.256 90.6764 59.256C88.4853 59.256 86.709 61.0323 86.709 63.2234C86.709 65.4145 88.4853 67.1908 90.6764 67.1908Z" fill="#89D888"/>
<path opacity="0.6" d="M108.362 146.539C110.554 146.539 112.33 144.763 112.33 142.571C112.33 140.38 110.554 138.604 108.362 138.604C106.171 138.604 104.395 140.38 104.395 142.571C104.395 144.763 106.171 146.539 108.362 146.539Z" fill="#89D888"/>
<path d="M122.511 71.923C128.636 71.923 133.601 66.958 133.601 60.8334C133.601 54.7088 128.636 49.7438 122.511 49.7438C116.387 49.7438 111.422 54.7088 111.422 60.8334C111.422 66.958 116.387 71.923 122.511 71.923Z" fill="#C3FFC2"/>
<path d="M122.512 49.7438C122.416 49.7438 122.368 49.7438 122.273 49.7438C125.475 51.7036 127.626 55.2408 127.626 59.256C127.626 65.2788 122.798 70.2022 116.776 70.3456C118.449 71.3494 120.408 71.923 122.512 71.923C128.63 71.923 133.601 66.9518 133.601 60.8334C133.601 54.715 128.63 49.7438 122.512 49.7438Z" fill="#97E596"/>
<path d="M122.511 71.923C128.636 71.923 133.601 66.958 133.601 60.8334C133.601 54.7088 128.636 49.7438 122.511 49.7438C116.387 49.7438 111.422 54.7088 111.422 60.8334C111.422 66.958 116.387 71.923 122.511 71.923Z" stroke="#212529" stroke-width="4.78" stroke-miterlimit="10" stroke-linecap="round" stroke-linejoin="round"/>
<path d="M307.593 238.028C307.593 225.504 317.726 215.419 330.202 215.419C342.678 215.419 352.812 225.504 352.812 238.028H307.593Z" fill="#C0ADFF"/>
<path opacity="0.4" d="M330.202 215.419C327.86 215.419 325.661 215.753 323.51 216.422C332.736 219.243 339.428 227.847 339.428 238.028H352.764C352.812 225.504 342.678 215.419 330.202 215.419Z" fill="#382F55"/>
<path d="M307.593 238.028C307.593 225.504 317.726 215.419 330.202 215.419C342.678 215.419 352.812 225.504 352.812 238.028H307.593Z" stroke="#212529" stroke-width="4.78" stroke-miterlimit="10" stroke-linecap="round" stroke-linejoin="round"/>
<path d="M341.722 238.028C341.722 229.711 348.414 223.067 356.683 223.067C364.953 223.067 371.645 229.759 371.645 238.028H341.722Z" fill="#BCC8F0"/>
<path opacity="0.53" d="M356.684 223.067C355.489 223.067 354.341 223.21 353.242 223.449C359.838 224.979 364.81 230.906 364.81 238.028H371.693C371.693 229.711 364.953 223.067 356.684 223.067Z" fill="#897BBB"/>
<path d="M341.722 238.028C341.722 229.711 348.414 223.067 356.683 223.067C364.953 223.067 371.645 229.759 371.645 238.028H341.722Z" stroke="#212529" stroke-width="4.78" stroke-miterlimit="10" stroke-linecap="round" stroke-linejoin="round"/>
<path d="M376.473 238.028C376.473 231.957 381.348 227.13 387.371 227.13C393.394 227.13 398.27 232.005 398.27 238.028H376.473Z" fill="#BCC8F0"/>
<path d="M376.473 238.028C376.473 231.957 381.348 227.13 387.371 227.13C393.394 227.13 398.27 232.005 398.27 238.028H376.473Z" stroke="#212529" stroke-width="4.78" stroke-miterlimit="10" stroke-linecap="round" stroke-linejoin="round"/>
<path d="M112.187 238.028C112.187 232.005 117.062 227.13 123.085 227.13C129.108 227.13 133.983 232.005 133.983 238.028H112.187Z" fill="#C3FFC2"/>
<path d="M112.187 238.028C112.187 232.005 117.062 227.13 123.085 227.13C129.108 227.13 133.983 232.005 133.983 238.028H112.187Z" stroke="#212529" stroke-width="4.78" stroke-miterlimit="10" stroke-linecap="round" stroke-linejoin="round"/>
<path d="M167.252 238.028C167.252 234.156 170.359 231.049 174.231 231.049C178.103 231.049 181.21 234.156 181.21 238.028H167.252Z" fill="#212529"/>
<path d="M155.016 237.407C155.016 234.204 157.597 231.623 160.799 231.623C164.002 231.623 166.583 234.204 166.583 237.407H155.016Z" fill="#212529"/>
<path d="M167.252 238.028C167.252 234.156 170.359 231.049 174.231 231.049C178.103 231.049 181.21 234.156 181.21 238.028H167.252Z" stroke="#212529" stroke-width="4.78" stroke-miterlimit="10" stroke-linecap="round" stroke-linejoin="round"/>
<path d="M184.891 238.028C184.891 232.005 189.766 227.13 195.789 227.13C201.812 227.13 206.687 232.005 206.687 238.028H184.891Z" fill="#212529"/>
<path d="M277.766 237.693C277.766 233.535 281.112 230.189 285.27 230.189C289.429 230.189 292.775 233.535 292.775 237.693H277.766Z" fill="#212529"/>
<path d="M258.168 237.693C258.168 232.244 262.613 227.799 268.062 227.799C273.512 227.799 277.957 232.244 277.957 237.693H258.168Z" fill="#212529"/>
<path d="M184.891 238.028C184.891 232.005 189.766 227.13 195.789 227.13C201.812 227.13 206.687 232.005 206.687 238.028H184.891Z" stroke="#212529" stroke-width="4.78" stroke-miterlimit="10" stroke-linecap="round" stroke-linejoin="round"/>
<path d="M252.24 238.028H417.485" stroke="#212529" stroke-width="4.78" stroke-miterlimit="10" stroke-linecap="round" stroke-linejoin="round"/>
<path d="M232.021 238.028H243.971" stroke="#212529" stroke-width="4.78" stroke-miterlimit="10" stroke-linecap="round" stroke-linejoin="round"/>
<path d="M52.7714 238.028H224.851" stroke="#212529" stroke-width="4.78" stroke-miterlimit="10" stroke-linecap="round" stroke-linejoin="round"/>
<path d="M169.212 214.367H159.652V238.028H169.212V214.367Z" fill="#81440E"/>
<path d="M169.212 214.367H159.652V238.028H169.212V214.367Z" fill="#81440E"/>
<path d="M169.212 214.367H159.652V221.633H169.212V214.367Z" fill="#663717"/>
<path d="M268.062 214.367H258.502V238.028H268.062V214.367Z" fill="#81440E"/>
<path d="M268.062 214.367H258.502V221.633H268.062V214.367Z" fill="#663717"/>
<path d="M169.212 214.367H159.652V238.028H169.212V214.367Z" stroke="#212529" stroke-width="4.78" stroke-miterlimit="10" stroke-linecap="round" stroke-linejoin="round"/>
<path d="M268.062 214.367H258.502V238.028H268.062V214.367Z" stroke="#212529" stroke-width="4.78" stroke-miterlimit="10" stroke-linecap="round" stroke-linejoin="round"/>
<path d="M172.51 152.896H165.818V203.612H172.51V152.896Z" fill="#81440E"/>
<path d="M172.51 163.078H165.818V195.486H172.51V163.078Z" fill="#663717"/>
<path d="M172.51 152.896H165.818V203.612H172.51V152.896Z" stroke="#212529" stroke-width="4.78" stroke-miterlimit="10" stroke-linecap="round" stroke-linejoin="round"/>
<path d="M261.896 152.896H255.204V203.612H261.896V152.896Z" fill="#81440E"/>
<path d="M261.896 160.592H255.204V195.486H261.896V160.592Z" fill="#663717"/>
<path d="M261.896 152.896H255.204V203.612H261.896V152.896Z" stroke="#212529" stroke-width="4.78" stroke-miterlimit="10" stroke-linecap="round" stroke-linejoin="round"/>
<path d="M277.813 160.64H143.973V174.98H277.813V160.64Z" fill="#81440E"/>
<path d="M277.813 160.64H143.973V165.515H277.813V160.64Z" fill="#A05720"/>
<path d="M277.813 160.64H143.973V174.98H277.813V160.64Z" stroke="#212529" stroke-width="4.78" stroke-miterlimit="10" stroke-linecap="round" stroke-linejoin="round"/>
<path d="M277.813 174.98H143.973V189.32H277.813V174.98Z" fill="#81440E"/>
<path d="M277.813 174.98H143.973V179.616H277.813V174.98Z" fill="#A05720"/>
<path d="M277.813 174.98H143.973V189.32H277.813V174.98Z" stroke="#212529" stroke-width="4.78" stroke-miterlimit="10" stroke-linecap="round" stroke-linejoin="round"/>
<path d="M294.257 204.807H133.458V214.367H294.257V204.807Z" fill="#81440E"/>
<path d="M294.257 204.807H133.458V214.367H294.257V204.807Z" fill="#81440E"/>
<path d="M294.257 204.807H133.458V208.631H294.257V204.807Z" fill="#A05720"/>
<path d="M294.257 204.807H133.458V214.367H294.257V204.807Z" stroke="#212529" stroke-width="4.78" stroke-miterlimit="10" stroke-linecap="round" stroke-linejoin="round"/>
<path d="M169.786 170.869C171.185 170.869 172.319 169.735 172.319 168.336C172.319 166.936 171.185 165.802 169.786 165.802C168.386 165.802 167.252 166.936 167.252 168.336C167.252 169.735 168.386 170.869 169.786 170.869Z" fill="#663717"/>
<path d="M169.786 184.157C171.185 184.157 172.319 183.023 172.319 181.624C172.319 180.225 171.185 179.091 169.786 179.091C168.386 179.091 167.252 180.225 167.252 181.624C167.252 183.023 168.386 184.157 169.786 184.157Z" fill="#663717"/>
<path d="M259.171 170.869C260.571 170.869 261.705 169.735 261.705 168.336C261.705 166.936 260.571 165.802 259.171 165.802C257.772 165.802 256.638 166.936 256.638 168.336C256.638 169.735 257.772 170.869 259.171 170.869Z" fill="#663717"/>
<path d="M259.171 184.157C260.571 184.157 261.705 183.023 261.705 181.624C261.705 180.225 260.571 179.091 259.171 179.091C257.772 179.091 256.638 180.225 256.638 181.624C256.638 183.023 257.772 184.157 259.171 184.157Z" fill="#663717"/>
<path d="M169.164 170.248C170.22 170.248 171.076 169.392 171.076 168.336C171.076 167.28 170.22 166.424 169.164 166.424C168.108 166.424 167.252 167.28 167.252 168.336C167.252 169.392 168.108 170.248 169.164 170.248Z" fill="#212529"/>
<path d="M169.164 183.536C170.22 183.536 171.076 182.68 171.076 181.624C171.076 180.568 170.22 179.712 169.164 179.712C168.108 179.712 167.252 180.568 167.252 181.624C167.252 182.68 168.108 183.536 169.164 183.536Z" fill="#212529"/>
<path d="M258.55 170.248C259.606 170.248 260.462 169.392 260.462 168.336C260.462 167.28 259.606 166.424 258.55 166.424C257.494 166.424 256.638 167.28 256.638 168.336C256.638 169.392 257.494 170.248 258.55 170.248Z" fill="#212529"/>
<path d="M258.55 183.536C259.606 183.536 260.462 182.68 260.462 181.624C260.462 180.568 259.606 179.712 258.55 179.712C257.494 179.712 256.638 180.568 256.638 181.624C256.638 182.68 257.494 183.536 258.55 183.536Z" fill="#212529"/>
<path d="M285.271 251.938H288.186" stroke="#212529" stroke-width="4.78" stroke-miterlimit="10" stroke-linecap="round" stroke-linejoin="round"/>
<path d="M212.089 251.938H275.854" stroke="#212529" stroke-width="4.78" stroke-miterlimit="10" stroke-linecap="round" stroke-linejoin="round"/>
<path d="M189.957 251.938H200.903" stroke="#212529" stroke-width="4.78" stroke-miterlimit="10" stroke-linecap="round" stroke-linejoin="round"/>
<path d="M293.444 49.7438H298.941" stroke="#212529" stroke-width="4.78" stroke-miterlimit="10" stroke-linecap="round" stroke-linejoin="round"/>
<path d="M308.979 49.7438H326.426" stroke="#212529" stroke-width="4.78" stroke-miterlimit="10" stroke-linecap="round" stroke-linejoin="round"/>
<path d="M20.7931 86.1196H37.2841" stroke="#212529" stroke-width="4.78" stroke-miterlimit="10" stroke-linecap="round" stroke-linejoin="round"/>
<path d="M45.0753 86.1196H53.7749" stroke="#212529" stroke-width="4.78" stroke-miterlimit="10" stroke-linecap="round" stroke-linejoin="round"/>
<path d="M448.938 81.7698H452.188" stroke="#212529" stroke-width="4.78" stroke-miterlimit="10" stroke-linecap="round" stroke-linejoin="round"/>
<path d="M431.921 81.7698H441.338" stroke="#212529" stroke-width="4.78" stroke-miterlimit="10" stroke-linecap="round" stroke-linejoin="round"/>
<path d="M311.943 67.2386H340.91" stroke="#212529" stroke-width="4.78" stroke-miterlimit="10" stroke-linecap="round" stroke-linejoin="round"/>
<path d="M191.678 75.3168C191.63 74.9344 191.582 74.5042 191.582 74.074C191.582 69.8198 195.024 66.3304 199.326 66.3304C203.58 66.3304 207.07 69.772 207.07 74.074C207.07 78.3282 203.628 81.8176 199.326 81.8176" stroke="#212529" stroke-width="4.78" stroke-miterlimit="10" stroke-linecap="round" stroke-linejoin="round"/>
<path d="M166.248 81.7698H199.326" stroke="#212529" stroke-width="4.78" stroke-miterlimit="10" stroke-linecap="round" stroke-linejoin="round"/>
<path d="M416.577 60.4988C416.529 60.1164 416.482 59.6862 416.482 59.256C416.482 55.0018 419.923 51.5124 424.225 51.5124C428.527 51.5124 431.969 54.954 431.969 59.256C431.969 63.558 428.527 66.9996 424.225 66.9996" stroke="#212529" stroke-width="4.78" stroke-miterlimit="10" stroke-linecap="round" stroke-linejoin="round"/>
<path d="M395.975 66.9996H424.177" stroke="#212529" stroke-width="4.78" stroke-miterlimit="10" stroke-linecap="round" stroke-linejoin="round"/>
<path d="M211.897 102.324C211.85 102.706 211.802 103.136 211.802 103.567C211.802 107.821 215.243 111.31 219.545 111.31C223.847 111.31 227.289 107.869 227.289 103.567C227.289 99.2646 223.847 95.823 219.545 95.823" stroke="#212529" stroke-width="4.78" stroke-miterlimit="10" stroke-linecap="round" stroke-linejoin="round"/>
<path d="M190.053 95.8708H219.498" stroke="#212529" stroke-width="4.78" stroke-miterlimit="10" stroke-linecap="round" stroke-linejoin="round"/>
<path d="M179.441 95.8708H182.93" stroke="#212529" stroke-width="4.78" stroke-miterlimit="10" stroke-linecap="round" stroke-linejoin="round"/>
<path d="M153.773 95.8708H170.837" stroke="#212529" stroke-width="4.78" stroke-miterlimit="10" stroke-linecap="round" stroke-linejoin="round"/>
<path d="M173.179 72.2098H142.54" stroke="#212529" stroke-width="4.78" stroke-miterlimit="10" stroke-linecap="round" stroke-linejoin="round"/>
<path d="M45.0753 63.1278H56.6429" stroke="#212529" stroke-width="4.78" stroke-miterlimit="10" stroke-linecap="round" stroke-linejoin="round"/>
<path d="M423.843 131.577C430.126 131.577 435.219 126.484 435.219 120.201C435.219 113.918 430.126 108.825 423.843 108.825C417.56 108.825 412.466 113.918 412.466 120.201C412.466 126.484 417.56 131.577 423.843 131.577Z" fill="#C0ADFF"/>
<path d="M423.843 131.577C430.126 131.577 435.219 126.484 435.219 120.201C435.219 113.918 430.126 108.825 423.843 108.825C417.56 108.825 412.466 113.918 412.466 120.201C412.466 126.484 417.56 131.577 423.843 131.577Z" stroke="#212529" stroke-width="4.78" stroke-miterlimit="10" stroke-linecap="round" stroke-linejoin="round"/>
<path d="M77.7704 238.028C86.8253 238.028 94.1658 226.022 94.1658 211.212C94.1658 196.402 86.8253 184.396 77.7704 184.396C68.7155 184.396 61.375 196.402 61.375 211.212C61.375 226.022 68.7155 238.028 77.7704 238.028Z" fill="#ADBFFF"/>
<path opacity="0.74" d="M77.7705 184.396C77.3881 184.396 77.0057 184.444 76.6711 184.444C83.0763 188.077 87.6651 198.067 87.6651 209.73C87.6651 223.927 80.9253 235.542 72.3691 236.451C74.0421 237.407 75.9063 237.932 77.7705 237.932C86.8047 237.932 94.1659 225.935 94.1659 211.117C94.1659 196.394 86.8047 184.396 77.7705 184.396Z" fill="#B199FF"/>
<path d="M77.7704 238.028C86.8253 238.028 94.1658 226.022 94.1658 211.212C94.1658 196.402 86.8253 184.396 77.7704 184.396C68.7155 184.396 61.375 196.402 61.375 211.212C61.375 226.022 68.7155 238.028 77.7704 238.028Z" stroke="#212529" stroke-width="4.78" stroke-miterlimit="10" stroke-linecap="round" stroke-linejoin="round"/>
<path d="M79.4912 238.028C79.4912 228.946 86.8046 221.633 95.8866 221.633C104.969 221.633 112.282 228.946 112.282 238.028H79.4912Z" fill="#C0ADFF"/>
<path opacity="0.4" d="M95.8391 221.633C94.4051 221.633 93.0667 221.824 91.7283 222.158C98.8027 223.975 104.013 230.38 104.013 238.028H112.234C112.234 228.946 104.873 221.633 95.8391 221.633Z" fill="#382F55"/>
<path d="M79.4912 238.028C79.4912 228.946 86.8046 221.633 95.8866 221.633C104.969 221.633 112.282 228.946 112.282 238.028H79.4912Z" stroke="#212529" stroke-width="4.78" stroke-miterlimit="10" stroke-linecap="round" stroke-linejoin="round"/>
<path opacity="0.91" d="M378.194 77.3722C380.279 77.3722 381.97 75.6815 381.97 73.596C381.97 71.5105 380.279 69.8198 378.194 69.8198C376.108 69.8198 374.418 71.5105 374.418 73.596C374.418 75.6815 376.108 77.3722 378.194 77.3722Z" fill="#C0ADFF"/>
<path opacity="0.91" d="M370.307 95.8708C372.999 95.8708 375.182 93.6879 375.182 90.9952C375.182 88.3025 372.999 86.1196 370.307 86.1196C367.614 86.1196 365.431 88.3025 365.431 90.9952C365.431 93.6879 367.614 95.8708 370.307 95.8708Z" fill="#C0ADFF"/>
<path opacity="0.91" d="M395.975 134.876C398.668 134.876 400.851 132.693 400.851 130C400.851 127.307 398.668 125.124 395.975 125.124C393.282 125.124 391.099 127.307 391.099 130C391.099 132.693 393.282 134.876 395.975 134.876Z" fill="#C0ADFF"/>
<path opacity="0.4" d="M398.269 108.442C400.962 108.442 403.145 106.259 403.145 103.567C403.145 100.874 400.962 98.691 398.269 98.691C395.577 98.691 393.394 100.874 393.394 103.567C393.394 106.259 395.577 108.442 398.269 108.442Z" fill="#382F55"/>
<path opacity="0.38" d="M76.3365 208.774C78.5277 208.774 80.3039 206.998 80.3039 204.807C80.3039 202.616 78.5277 200.84 76.3365 200.84C74.1454 200.84 72.3691 202.616 72.3691 204.807C72.3691 206.998 74.1454 208.774 76.3365 208.774Z" fill="#95A4DD"/>
<path opacity="0.6" d="M70.5529 213.985C71.8465 213.985 72.8951 212.936 72.8951 211.642C72.8951 210.349 71.8465 209.3 70.5529 209.3C69.2593 209.3 68.2107 210.349 68.2107 211.642C68.2107 212.936 69.2593 213.985 70.5529 213.985Z" fill="#A4B4F2"/>
<path opacity="0.38" d="M80.3041 220.545C81.8353 220.545 83.0765 219.304 83.0765 217.772C83.0765 216.241 81.8353 215 80.3041 215C78.773 215 77.5317 216.241 77.5317 217.772C77.5317 219.304 78.773 220.545 80.3041 220.545Z" fill="#95A4DD"/>
</g>
<defs>
<clipPath id="clip0_31_1286">
<rect width="478" height="260" fill="white"/>
</clipPath>
</defs>
</svg>
